# xmcd
#
# Track frame offsets:
#	150
#	22358
#	34855
#	47468
#	58125
#	69903
#	93190
#	109443
#	132303
#	149738
#	167018
#	183858
#	203610
#	221848
#	240228
#	255353
#	271173
#	281470
#
# Disc length: 4069
#
# Revision: 1
# Processed by: cddbd v1.5.1PL0 Copyright (c) Steve Scherf et al.
# Submitted via: OrangeCD 5.2
# Normalized: r0:DSETVAR1
#
DISCID=070fe312
DTITLE=Various Artist - Raw Blues Vol. 2
DYEAR=1999
DGENRE=
TTITLE0=Gregg Smith - Blues In My Blood
TTITLE1=John Lee Hooker - Crawling King Snake
TTITLE2=Lightnin` Hopkins - My Baby's Gone
TTITLE3=Jimmy Reed - Ain't That Lovin` You Baby
TTITLE4=Ray Charles - Ray Charles Blues
TTITLE5=Mississippi John - The Angels Laid Him Away
TTITLE6=Skeleton Krew - Song For Frank
TTITLE7=Memphis Slim - Lend Me Your Love
TTITLE8=John Lee Hooker - Blues Before Sunrise
TTITLE9=Bo Diddley - Say Boss Man
TTITLE10=Mike Bloomfield - Cherry Red
TTITLE11=Roberto Ciotti - She's Mine
TTITLE12=Little Walter and Otis Rush - May Be The Last Time
TTITLE13=Lightning Slim - Hoodoo Blues
TTITLE14=Mississippi John Hurt - Baby What's Wrong With You?
TTITLE15=Rufus Thomas - Come Here Mama
TTITLE16=Lightnin` Hopkins - Hear Me Talkin
TTITLE17=Memphis Slim - Rock Me Baby
EXTD=
EXTT0=
EXTT1=
EXTT2=
EXTT3=
EXTT4=
EXTT5=
EXTT6=
EXTT7=
EXTT8=
EXTT9=
EXTT10=
EXTT11=
EXTT12=
EXTT13=
EXTT14=
EXTT15=
EXTT16=
EXTT17=
PLAYORDER=
